<?xml version="1.0" standalone="no"?>
<!DOCTYPE svg PUBLIC "-//W3C//DTD SVG 20010904//EN"
 "http://www.w3.org/TR/2001/REC-SVG-20010904/DTD/svg10.dtd">
<svg version="1.0" xmlns="http://www.w3.org/2000/svg"
 width="408.000000pt" height="612.000000pt" viewBox="0 0 408.000000 612.000000"
 preserveAspectRatio="xMidYMid meet">

<g transform="translate(0.000000,612.000000) scale(0.100000,-0.100000)"
fill="#000000" stroke="none">
<path d="M1860 3975 c-301 -61 -543 -292 -620 -595 -30 -118 -30 -292 0 -409
62 -241 214 -432 432 -542 210 -106 503 -107 708 -4 272 138 439 390 456 690
12 195 -31 361 -130 510 -120 180 -315 311 -523 351 -91 17 -235 17 -323 -1z
m339 -81 c36 -8 109 -36 161 -62 79 -38 109 -60 181 -132 153 -153 219 -313
218 -535 0 -208 -73 -382 -223 -531 -283 -281 -741 -281 -1019 1 -167 169
-247 399 -219 629 28 224 125 383 325 530 47 34 129 71 215 96 87 24 268 27
361 4z"/>
<path d="M1980 3699 c-14 -12 -44 -39 -67 -60 l-43 -40 0 -155 0 -154 40 0 40
0 0 144 0 145 33 30 c17 17 34 31 37 31 3 0 20 -14 38 -31 l32 -30 0 -145 0
-145 43 3 42 3 3 145 3 144 -73 68 c-40 37 -80 68 -88 68 -8 -1 -26 -10 -40
-21z"/>
<path d="M1700 3239 c0 -186 1 -200 18 -197 15 3 17 22 20 201 2 192 2 197
-18 197 -19 0 -20 -6 -20 -201z"/>
<path d="M2310 3240 c0 -193 1 -200 20 -200 19 0 20 7 20 200 0 193 -1 200
-20 200 -19 0 -20 -7 -20 -200z"/>
<path d="M1877 3233 c-4 -3 -7 -33 -7 -65 0 -62 -6 -53 90 -137 55 -49 63 -48
138 11 37 29 70 57 75 63 4 5 6 37 5 70 l-3 60 -42 3 -43 3 0 -59 c0 -53 -3
-60 -30 -80 -38 -28 -42 -28 -79 7 -27 25 -31 36 -31 80 l0 51 -33 0 c-19 0
-37 -3 -40 -7z"/>
<path d="M1690 2910 l0 -40 338 2 337 3 0 35 0 35 -337 3 -338 2 0 -40z"/>
<path d="M1933 2770 c-27 -11 -39 -50 -24 -78 11 -20 55 -37 71 -27 18 11 10
21 -16 20 -58 0 -56 65 2 75 24 5 26 7 11 13 -10 4 -19 7 -20 6 -1 0 -12 -4
-24 -9z"/>
<path d="M2202 2764 c-57 -39 6 -127 64 -90 32 21 33 69 2 90 -28 20 -38 20
-66 0z m63 -24 c9 -29 -3 -60 -24 -60 -38 0 -56 50 -23 69 26 16 40 13 47 -9z"/>
<path d="M1670 2723 c-23 -52 -21 -60 9 -41 17 11 25 11 42 0 12 -7 23 -11 25
-9 7 7 -35 97 -45 97 -6 0 -19 -21 -31 -47z m35 -3 c3 -5 1 -10 -4 -10 -6 0
-11 5 -11 10 0 6 2 10 4 10 3 0 8 -4 11 -10z"/>
<path d="M1780 2731 c0 -38 19 -71 41 -71 33 0 49 22 49 65 0 25 -4 45 -10 45
-5 0 -10 -21 -10 -46 0 -41 -2 -45 -22 -42 -19 2 -24 10 -26 46 -4 53 -22 56
-22 3z"/>
<path d="M2028 2758 c17 -9 22 -20 22 -50 0 -21 5 -38 10 -38 6 0 10 18 10 40
0 27 6 42 18 49 13 8 6 10 -33 10 -43 0 -47 -2 -27 -11z"/>
<path d="M2130 2720 c0 -27 5 -50 10 -50 6 0 10 23 10 50 0 28 -4 50 -10 50
-5 0 -10 -22 -10 -50z"/>
<path d="M2324 2720 c1 -27 4 -50 9 -50 4 0 7 14 7 30 0 17 2 30 5 30 3 0 18
-14 34 -32 l28 -31 7 43 c4 26 3 47 -4 54 -7 7 -10 3 -10 -11 0 -33 -14 -35
-40 -8 -13 14 -26 25 -30 25 -4 0 -6 -22 -6 -50z"/>
</g>
</svg>
